<?xml version="1.0" standalone="no"?> <!DOCTYPE svg PUBLIC "-//W3C//DTD SVG 1.0//EN" "http://www.w3.org/TR/2001/REC-SVG-20010904/DTD/svg10.dtd" > <svg xmlns="http://www.w3.org/2000/svg" width="100%" height="100%">
<defs >
<font id="dincond-bold" horiz-adv-x="336" ><font-face
    font-family="DINCond-Bold"
    units-per-em="1000"
    panose-1="0 0 0 0 0 0 0 0 0 0"
    ascent="965"
    descent="-194"
    alphabetic="0" />
<missing-glyph horiz-adv-x="200" />
<glyph unicode=" " glyph-name="space" horiz-adv-x="179" />
<glyph unicode="!" glyph-name="exclam" horiz-adv-x="257" d="M193 200H87V712H193V200ZM202 0H78V123H202V0Z" />
<glyph unicode="&quot;" glyph-name="quotedbl" horiz-adv-x="437" d="M174 511H72V712H174V511ZM364 511H263V712H364V511Z" />
<glyph unicode="#" glyph-name="numbersign" horiz-adv-x="608" d="M561 428H477L459 301H530V201H443L414 0H303L332 201H225L196 0H86L115 201H47V301H131L149 428H78L77 529H165L191 712H302L275 529H382L409 712H519L493 529H561V428ZM367 428H260L241 301H348L367
428Z" />
<glyph unicode="$" glyph-name="dollar" horiz-adv-x="449" d="M407 197Q407 85 361 40Q329 8 273 -2V-114H174V-3Q117 6 83 40Q38 85 38 193H150Q150 136 170 113Q187 94 222 94Q258 94 275 114Q295 137 295 193Q295 250 283 271T228 310L143 345Q88 368 66 405T44
524Q44 623 102 675Q133 703 174 712V806H273V713Q321 704 352 675Q402 626 402 520H290Q290 574 273 596Q257 617 223 617Q193 617 175 597Q156 575 156 527Q156 483 167 465T215 431L299 397Q363 371 385 330T407 197Z" />
<glyph unicode="%" glyph-name="percent" horiz-adv-x="732" d="M685 112Q685 55 649 24T558 -8T468 23T431 112V245Q431 302 467 333T558 365T648 334T685 245V112ZM301 467Q301 410 265 379T174 347T84 378T47 467V600Q47 657 83 688T174 720T264 689T301 600V467ZM532
712L284 0H202L450 712H532ZM214 469V598Q214 643 174 643Q133 643 133 598V469Q133 424 174 424Q214 424 214 469ZM598 114V243Q598 288 558 288T518 243V114Q518 69 558 69T598 114Z" />
<glyph unicode="&amp;" glyph-name="ampersand" horiz-adv-x="499" d="M497 0H386L347 63Q284 -8 201 -8Q127 -8 81 41T34 175Q34 282 140 390Q101 442 83 480T65 560Q65 636 105 677T207 719Q277 719 314 678T351 570Q351 511 329 467T260 374L345 243Q369 294
374 374H465Q460 249 404 149L497 0ZM295 144L192 304Q133 244 133 182Q133 140 154 114T210 87Q255 87 295 144ZM256 568Q256 593 243 608T208 624Q186 624 173 608T160 564Q160 522 207 459Q233 488 244 511T256 568Z" />
<glyph unicode="&apos;" glyph-name="quotesingle" horiz-adv-x="247" d="M174 511H72V712H174V511Z" />
<glyph unicode="(" glyph-name="parenleft" horiz-adv-x="265" d="M224 -23L153 -94Q92 -33 72 2Q48 44 48 120V592Q48 668 72 710Q93 746 153 806L224 735Q182 693 168 668T154 586V126Q154 69 168 44T224 -23Z" />
<glyph unicode=")" glyph-name="parenright" horiz-adv-x="265" d="M218 120Q218 46 193 2Q176 -29 113 -94L41 -23Q85 21 97 44Q112 69 112 126V586Q112 643 97 668Q85 691 41 735L113 806Q176 741 193 710Q218 666 218 592V120Z" />
<glyph unicode="*" glyph-name="asterisk" horiz-adv-x="417" d="M374 479L336 414L243 472L247 346H170L174 472L80 414L43 479L141 530L43 581L80 647L174 588L170 714H247L243 588L336 647L374 581L276 530L374 479Z" />
<glyph unicode="+" glyph-name="plus" horiz-adv-x="457" d="M413 238H279V104H178V238H44V339H178V473H279V339H413V238Z" />
<glyph unicode="," glyph-name="comma" horiz-adv-x="229" d="M172 -65L57 -150V124H172V-65Z" />
<glyph unicode="-" glyph-name="hyphen" horiz-adv-x="295" d="M249 238H47V339H249V238Z" />
<glyph unicode="." glyph-name="period" horiz-adv-x="234" d="M179 0H56V123H179V0Z" />
<glyph unicode="/" glyph-name="slash" horiz-adv-x="298" d="M291 786L106 -74H6L191 786H291Z" />
<glyph unicode="0" glyph-name="zero" horiz-adv-x="401" d="M359 152Q359 77 314 34Q270 -8 201 -8Q131 -8 87 34Q42 77 42 152V560Q42 635 87 678Q131 720 201 720Q270 720 314 678Q359 635 359 560V152ZM253 148V564Q253 594 239 609T201 625T163 609T148 564V148Q148
119 163 103T201 87T238 102T253 148Z" />
<glyph unicode="1" glyph-name="one" horiz-adv-x="401" d="M283 0H177V588L70 506V626L177 712H283V0Z" />
<glyph unicode="2" glyph-name="two" horiz-adv-x="401" d="M360 0H47V90L225 436Q254 490 254 563Q254 593 240 609T203 625T165 609T150 564V518H44V560Q44 636 88 678T203 720Q272 720 313 682Q360 638 360 559Q360 478 321 403L160 95H360V0Z" />
<glyph unicode="3" glyph-name="three" horiz-adv-x="401" d="M361 203Q361 136 353 100T314 33Q271 -8 200 -8T85 34T41 152V194H147V148Q147 119 162 103T200 87Q224 87 238 105Q255 127 255 210T239 314Q226 332 199 332H164V421H199Q221 421 233 435Q249 453
249 525Q249 591 235 609Q222 625 200 625Q179 625 166 610T152 568V518H46V561Q46 637 90 679Q133 720 200 720Q269 720 309 680Q355 634 355 532Q355 454 337 419Q324 394 298 377Q327 356 339 334Q361 295 361 203Z" />
<glyph unicode="4" glyph-name="four" horiz-adv-x="401" d="M377 111H328V0H222V111H24V206L207 712H310L133 206H222V333H328V206H377V111Z" />
<glyph unicode="5" glyph-name="five" horiz-adv-x="401" d="M362 240Q362 182 360 153T347 91T314 36Q270 -8 201 -8Q130 -8 87 33Q42 76 42 152V187H148V138Q148 107 162 92T201 76Q226 76 240 95Q256 116 256 230Q256 334 242 356Q229 378 201 378Q178 378
163 362T148 317V302H47V712H354V617H144V426Q162 449 181 460Q205 473 232 473Q294 473 328 430Q349 404 355 360T362 240Z" />
<glyph unicode="6" glyph-name="six" horiz-adv-x="401" d="M361 216Q361 98 327 49Q287 -8 200 -8Q116 -8 76 49Q55 79 48 115T40 216Q40 306 69 384L194 712H304L187 424Q203 436 231 436Q291 436 325 392Q345 366 353 330T361 216ZM255 217Q255 310 239 331Q226
349 201 349T162 331Q146 310 146 217Q146 127 162 105Q176 87 201 87T239 105Q255 126 255 217Z" />
<glyph unicode="7" glyph-name="seven" horiz-adv-x="401" d="M365 624L178 0H72L259 617H135V522H33V712H365V624Z" />
<glyph unicode="8" glyph-name="eight" horiz-adv-x="401" d="M361 201Q361 136 352 100T314 34Q272 -8 201 -8Q129 -8 87 34Q58 63 49 99T40 201Q40 289 61 327Q72 350 103 372Q78 390 64 416Q45 453 45 527Q45 633 91 679Q132 720 200 720Q269 720 310 679Q356
633 356 527Q356 453 337 416Q323 390 298 372Q326 351 340 327Q361 289 361 201ZM255 206Q255 291 239 311Q225 328 201 328Q176 328 162 311Q146 291 146 206Q146 125 162 104Q176 87 201 87Q225 87 239 104Q255 124 255 206ZM250 522Q250 593 235 611Q224 625
201 625Q177 625 166 611Q151 593 151 522Q151 446 169 429Q181 417 201 417T233 429Q240 435 244 446T249 469T250 495T250 522Z" />
<glyph unicode="9" glyph-name="nine" horiz-adv-x="401" d="M361 496Q361 406 332 328L207 0H97L214 288Q198 276 171 276Q110 276 76 320Q56 346 48 382T40 496Q40 613 75 663Q115 720 201 720Q286 720 326 663Q347 634 354 598T361 496ZM255 495Q255 585 239
607Q226 625 201 625T162 607Q146 586 146 495Q146 402 162 381Q176 363 201 363T239 381Q255 402 255 495Z" />
<glyph unicode=":" glyph-name="colon" horiz-adv-x="257" d="M202 313H78V436H202V313ZM202 0H78V123H202V0Z" />
<glyph unicode=";" glyph-name="semicolon" horiz-adv-x="257" d="M198 -65L82 -150V124H198V-65ZM202 313H78V436H202V313Z" />
<glyph unicode="&lt;" glyph-name="less" horiz-adv-x="401" d="M367 60L34 255V329L367 523V407L164 292L367 177V60Z" />
<glyph unicode="=" glyph-name="equal" horiz-adv-x="457" d="M413 326H44V427H413V326ZM413 145H44V246H413V145Z" />
<glyph unicode="&gt;" glyph-name="greater" horiz-adv-x="401" d="M367 255L34 60V177L237 292L34 407V523L367 329V255Z" />
<glyph unicode="?" glyph-name="question" horiz-adv-x="426" d="M393 524Q393 446 359 401L300 322Q277 291 277 257V200H171V269Q171 314 202 355L261 434Q287 468 287 527Q287 582 267 604Q250 623 224 623T181 605Q162 584 162 527H56Q56 627 103 671Q154
718 223 718Q302 718 345 673Q393 625 393 524ZM286 0H162V123H286V0Z" />
<glyph unicode="@" glyph-name="at" horiz-adv-x="608" d="M554 0H452V40Q434 16 417 7Q392 -8 363 -8Q303 -8 268 33Q238 67 238 147V335Q238 415 268 449Q303 490 363 490Q392 490 417 476Q436 466 448 449V532Q448 621 365 621H235Q153 621 153 532V136Q153
91 182 63L105 -13Q73 18 60 49T47 131V548Q47 625 93 669Q136 712 211 712H389Q464 712 507 669Q554 624 554 548V0ZM448 148V334Q448 364 434 380T396 396T359 380T344 334V148Q344 118 358 103T396 87T433 102T448 148Z" />
<glyph unicode="A" glyph-name="A" horiz-adv-x="468" d="M462 0H345L316 141H151L123 0H5L180 712H289L462 0ZM295 242L234 540L173 242H295Z" />
<glyph unicode="B" glyph-name="B" horiz-adv-x="472" d="M423 211Q423 92 377 45Q333 0 237 0H60V712H238Q333 712 377 668Q421 623 421 518Q421 435 384 398Q368 382 347 373Q370 364 385 347Q423 306 423 211ZM311 212Q311 271 291 297T226 323H172V101H226Q272
101 291 125T311 212ZM309 515Q309 568 290 589T225 611H172V418H225Q269 418 289 441T309 515Z" />
<glyph unicode="C" glyph-name="C" horiz-adv-x="447" d="M413 189Q410 88 354 37Q304 -8 231 -8Q146 -8 93 52Q68 80 56 131T43 222T41 355T42 488T56 580T93 660Q146 720 231 720Q306 720 355 674Q409 623 412 524H300Q298 570 283 593Q267 619 231 619T178
592Q153 552 153 356T178 120Q195 93 231 93Q268 93 284 119Q299 142 301 189H413Z" />
<glyph unicode="D" glyph-name="D" horiz-adv-x="472" d="M431 446T431 356T430 226T416 137T379 59Q327 0 241 0H60V712H241Q327 712 379 653Q404 625 416 576T429 486ZM319 255T319 357T315 509T295 582Q276 611 238 611H172V101H238Q276 101 295 130Q310 153 314 204Z" />
<glyph unicode="E" glyph-name="E" horiz-adv-x="396" d="M359 0H60V712H359V611H172V409H333V308H172V101H359V0Z" />
<glyph unicode="F" glyph-name="F" horiz-adv-x="390" d="M359 611H172V409H333V308H172V0H60V712H359V611Z" />
<glyph unicode="G" glyph-name="G" horiz-adv-x="455" d="M413 190Q413 96 363 44T231 -8Q146 -8 93 52Q68 80 56 131T43 223T41 356T42 489T56 581T93 660Q146 720 231 720Q310 720 358 672Q410 619 413 523H301Q299 619 231 619Q195 619 178 592Q153 552 153
356T178 120Q195 93 231 93Q265 93 283 119T301 184V295H231V387H413V190Z" />
<glyph unicode="H" glyph-name="H" horiz-adv-x="483" d="M423 0H311V312H172V0H60V712H172V412H311V712H423V0Z" />
<glyph unicode="I" glyph-name="I" horiz-adv-x="232" d="M172 0H60V712H172V0Z" />
<glyph unicode="J" glyph-name="J" horiz-adv-x="389" d="M335 186Q335 96 286 46Q235 -8 143 -8Q57 -8 3 49L81 124Q103 93 143 93Q179 93 201 117T223 186V712H335V186Z" />
<glyph unicode="K" glyph-name="K" horiz-adv-x="469" d="M462 0H341L226 293L172 183V0H60V712H172V377L327 712H440L297 417L462 0Z" />
<glyph unicode="L" glyph-name="L" horiz-adv-x="383" d="M359 0H60V712H172V101H359V0Z" />
<glyph unicode="M" glyph-name="M" horiz-adv-x="598" d="M538 0H426V444L329 152H267L172 439V0H60V712H161L299 338L436 712H538V0Z" />
<glyph unicode="N" glyph-name="N" horiz-adv-x="499" d="M439 0H340L172 423V0H60V712H160L327 289V712H439V0Z" />
<glyph unicode="O" glyph-name="O" horiz-adv-x="462" d="M421 448T421 356T420 223T406 131T369 52Q316 -8 231 -8T93 52Q68 80 56 131T43 223T41 356T42 489T56 581T93 660Q146 720 231 720T369 660Q394 632 406 581T419 489ZM309 249T309 356T305 515T285 592Q268
619 231 619Q195 619 178 592Q153 552 153 356T178 120Q195 93 231 93Q268 93 285 120Q300 144 304 196Z" />
<glyph unicode="P" glyph-name="P" horiz-adv-x="459" d="M422 496Q422 385 380 332T239 278H172V0H60V712H239Q335 712 378 660T422 496ZM310 439T310 495T296 581T241 611H172V379H241Q282 379 296 409Z" />
<glyph unicode="Q" glyph-name="Q" horiz-adv-x="462" d="M451 39L399 -23L341 26Q297 -8 231 -8Q146 -8 93 52Q68 80 56 131T43 223T41 356T42 489T56 581T93 660Q146 720 231 720T369 660Q394 632 406 581T419 489T421 356Q421 281 420 245T413 164T392 89L451
39ZM309 356Q309 466 305 517T285 592Q268 619 231 619Q195 619 178 592Q163 568 158 516T153 356T158 196T178 120Q195 93 231 93Q246 93 255 98L218 129L270 191L299 167Q309 210 309 356Z" />
<glyph unicode="R" glyph-name="R" horiz-adv-x="478" d="M445 0H328L235 292H172V0H60V712H240Q337 712 379 663T422 502Q422 431 404 386T339 316L445 0ZM310 450T310 502T296 582T241 611H172V393H241Q282 393 296 421Z" />
<glyph unicode="S" glyph-name="S" horiz-adv-x="442" d="M404 197Q404 85 358 40Q309 -7 219 -7Q128 -7 81 40Q35 86 35 193H147Q147 136 167 113Q184 94 219 94Q256 94 273 114Q292 136 292 193T280 271T225 310L140 345Q85 368 63 405T41 524Q41 623 99 675Q148
718 221 718Q304 718 349 675Q399 626 399 520H287Q287 574 270 596Q254 617 220 617Q190 617 172 597Q153 575 153 527Q153 483 164 465T212 431L296 397Q359 371 381 329T404 197Z" />
<glyph unicode="T" glyph-name="T" horiz-adv-x="393" d="M372 611H252V0H140V611H21V712H372V611Z" />
<glyph unicode="U" glyph-name="U" horiz-adv-x="471" d="M417 175Q417 95 368 44Q317 -8 236 -8Q154 -8 103 44Q54 95 54 175V712H166V169Q166 132 186 113T236 93T285 112T305 169V712H417V175Z" />
<glyph unicode="V" glyph-name="V" horiz-adv-x="437" d="M433 712L276 0H160L4 712H127L218 172L310 712H433Z" />
<glyph unicode="W" glyph-name="W" horiz-adv-x="714" d="M710 712L576 0H459L357 541L256 0H139L4 712H127L197 172L295 712H419L518 172L587 712H710Z" />
<glyph unicode="X" glyph-name="X" horiz-adv-x="432" d="M421 0H298L216 256L134 0H11L152 369L22 712H145L216 474L287 712H410L277 369L421 0Z" />
<glyph unicode="Y" glyph-name="Y" horiz-adv-x="389" d="M388 712L250 279V0H138V279L0 712H124L194 430L265 712H388Z" />
<glyph unicode="Z" glyph-name="Z" horiz-adv-x="373" d="M341 0H31V84L225 611H43V712H341V628L148 101H341V0Z" />
<glyph unicode="[" glyph-name="bracketleft" horiz-adv-x="282" d="M253 -74H53V786H253V692H159V20H253V-74Z" />
<glyph unicode="\" glyph-name="backslash" horiz-adv-x="298" d="M291 -74H191L6 786H106L291 -74Z" />
<glyph unicode="]" glyph-name="bracketright" horiz-adv-x="282" d="M228 -74H29V20H122V692H29V786H228V-74Z" />
<glyph unicode="^" glyph-name="asciicircum" horiz-adv-x="463" d="M418 434H315L232 611L149 434H45L185 717H278L418 434Z" />
<glyph unicode="_" glyph-name="underscore" horiz-adv-x="457" d="M457 -153H0V-76H457V-153Z" />
<glyph unicode="`" glyph-name="grave" horiz-adv-x="399" d="M245 587H171L84 726H173L245 587Z" />
<glyph unicode="a" glyph-name="a" horiz-adv-x="399" d="M350 0H250V45Q232 20 218 10Q192 -8 158 -8Q97 -8 59 36Q27 74 27 154Q27 229 76 272Q117 308 197 308H244V381Q244 442 193 442Q171 442 158 427Q142 410 142 378H36Q36 447 81 492Q124 535 192 535Q266
535 304 496Q350 450 350 372V0ZM244 155V233H209Q171 233 154 217Q133 198 133 158Q133 85 188 85Q212 85 228 104T244 155Z" />
<glyph unicode="b" glyph-name="b" horiz-adv-x="408" d="M372 364T372 264T366 114T335 33Q302 -8 242 -8Q214 -8 189 7Q181 11 170 21T154 40V0H52V712H158V493Q171 511 189 521Q212 535 242 535Q301 535 335 494Q359 464 365 414ZM266 264Q266 393 251 419Q237
441 211 441Q189 441 175 427Q158 410 158 377V150Q158 117 175 100Q188 87 211 87Q238 87 251 108Q266 134 266 264Z" />
<glyph unicode="c" glyph-name="c" horiz-adv-x="384" d="M356 155Q351 72 310 31Q271 -8 198 -8Q113 -8 73 48Q36 98 36 264Q36 428 73 480Q113 535 198 535Q269 535 309 498Q350 458 356 373H251Q249 407 237 422Q224 441 198 441Q171 441 157 419Q142 393 142
264T157 108Q170 87 198 87Q224 87 237 105Q249 120 251 155H356Z" />
<glyph unicode="d" glyph-name="d" horiz-adv-x="408" d="M356 0H254V40Q249 32 238 22T219 7Q194 -8 166 -8Q106 -8 73 33Q49 63 43 113T36 264T42 414T73 494Q107 535 166 535Q196 535 219 521Q237 511 250 493V712H356V0ZM250 150V377Q250 410 233 427Q219
441 197 441Q171 441 157 419Q142 393 142 264Q142 134 157 108Q170 87 197 87Q220 87 233 100Q250 117 250 150Z" />
<glyph unicode="e" glyph-name="e" horiz-adv-x="394" d="M359 233H142Q142 131 158 108Q172 87 199 87Q223 87 239 108Q252 124 252 155H357Q354 79 313 34Q275 -8 199 -8Q128 -8 85 35Q54 66 45 121T36 264T45 407T85 493Q127 535 198 535Q272 535 311 493Q329
474 340 444T354 380T358 308T359 233ZM253 311Q253 401 238 420Q222 441 198 441T158 420Q142 400 142 311H253Z" />
<glyph unicode="f" glyph-name="f" horiz-adv-x="271" d="M252 446H179V0H73V446H19V527H73V558Q73 643 126 685Q169 718 252 718V623Q179 623 179 552V527H252V446Z" />
<glyph unicode="g" glyph-name="g" horiz-adv-x="408" d="M356 -10Q356 -102 311 -147Q268 -190 197 -190Q125 -190 83 -149Q39 -105 39 -33H144Q144 -65 159 -83Q173 -99 197 -99Q220 -99 235 -82Q250 -64 250 -17V73Q235 53 220 44Q201 32 169 32Q111 32 78
71Q54 99 45 147T36 283T45 419T78 496Q111 535 169 535Q198 535 223 521Q241 511 254 493V527H356V-10ZM250 187V377Q250 408 234 426Q220 441 197 441Q175 441 158 419Q142 398 142 282T158 145T197 124Q222 124 235 139Q250 156 250 187Z" />
<glyph unicode="h" glyph-name="h" horiz-adv-x="417" d="M368 0H262V379Q262 409 248 424T210 440T173 425T158 379V0H52V712H158V493Q171 511 189 521Q212 535 242 535Q303 535 338 494Q368 460 368 380V0Z" />
<glyph unicode="i" glyph-name="i" horiz-adv-x="210" d="M158 0H52V513H158V0ZM163 594H46V711H163V594Z" />
<glyph unicode="j" glyph-name="j" horiz-adv-x="210" d="M158 -25Q158 -111 104 -152Q61 -185 -20 -185V-90Q17 -90 34 -74T52 -19V513H158V-25ZM163 594H46V711H163V594Z" />
<glyph unicode="k" glyph-name="k" horiz-adv-x="416" d="M409 0H292L203 222L158 151V0H52V712H158V302L291 527H402L271 318L409 0Z" />
<glyph unicode="l" glyph-name="l" horiz-adv-x="244" d="M227 0Q143 0 102 32Q49 72 49 160V712H155V166Q155 95 227 95V0Z" />
<glyph unicode="m" glyph-name="m" horiz-adv-x="628" d="M579 0H473V379Q473 408 458 424T420 440T383 425T368 379V0H262V379Q262 409 248 424T210 440T173 425T158 379V0H52V527H154V488Q172 512 189 521Q212 535 242 535Q307 535 345 481Q367 506 392 521Q417
535 448 535Q513 535 548 494Q579 459 579 380V0Z" />
<glyph unicode="n" glyph-name="n" horiz-adv-x="417" d="M368 0H262V379Q262 409 248 424T210 440T173 425T158 379V0H52V527H154V488Q172 512 189 521Q212 535 242 535Q303 535 338 494Q368 460 368 380V0Z" />
<glyph unicode="o" glyph-name="o" horiz-adv-x="396" d="M360 428T360 264T323 48Q283 -8 198 -8T73 48Q36 100 36 264T73 480Q113 535 198 535T323 480Q360 428 360 264ZM254 264Q254 393 239 419Q225 441 198 441T157 419Q142 393 142 264Q142 134 157 108Q170
87 198 87Q225 87 239 108Q254 134 254 264Z" />
<glyph unicode="p" glyph-name="p" horiz-adv-x="408" d="M372 364T372 264T366 114T335 33Q301 -8 242 -8Q212 -8 189 6Q171 16 158 34V-185H52V527H154V488Q159 496 170 506T189 521Q212 535 242 535Q302 535 335 494Q359 464 365 414ZM266 264Q266 393 251
419Q237 441 211 441Q189 441 175 427Q158 410 158 377V150Q158 117 175 100Q188 87 211 87Q238 87 251 108Q266 134 266 264Z" />
<glyph unicode="q" glyph-name="q" horiz-adv-x="408" d="M356 -185H250V34Q237 16 219 6Q196 -8 166 -8Q107 -8 73 33Q49 63 43 113T36 264T42 414T73 494Q106 535 166 535Q196 535 219 521Q227 517 238 507T254 488V527H356V-185ZM250 150V377Q250 410 233 427Q219
441 197 441Q171 441 157 419Q142 393 142 264Q142 134 157 108Q170 87 197 87Q220 87 233 100Q250 117 250 150Z" />
<glyph unicode="r" glyph-name="r" horiz-adv-x="299" d="M282 432H246Q208 432 183 408T158 341V0H52V527H154V471Q170 495 200 513Q236 535 282 535V432Z" />
<glyph unicode="s" glyph-name="s" horiz-adv-x="381" d="M352 152Q352 82 305 35Q262 -8 190 -8Q115 -8 74 35Q27 84 27 154H132Q132 122 150 104Q165 88 190 88T231 103Q246 117 246 145Q246 168 235 184Q223 202 194 214L124 245Q70 269 47 306Q30 333 30 378Q30
443 76 491Q120 535 190 535Q259 535 301 495Q346 452 346 378H242Q242 410 227 426T190 442Q166 442 151 427T136 387Q136 368 144 356Q155 338 183 326L253 296Q307 272 330 238Q352 207 352 152Z" />
<glyph unicode="t" glyph-name="t" horiz-adv-x="274" d="M254 0Q167 0 126 32Q73 74 73 160V446H19V527H73V662H179V527H252V446H179V166Q179 95 254 95V0Z" />
<glyph unicode="u" glyph-name="u" horiz-adv-x="417" d="M365 0H264V40Q247 17 228 7Q203 -8 175 -8Q114 -8 79 33Q49 67 49 147V527H155V148Q155 118 169 103T207 87T244 102T259 148V527H365V0Z" />
<glyph unicode="v" glyph-name="v" horiz-adv-x="381" d="M377 527L247 0H135L4 527H121L191 168L260 527H377Z" />
<glyph unicode="w" glyph-name="w" horiz-adv-x="577" d="M573 527L455 0H350L287 342L225 0H120L4 527H122L177 168L242 527H333L399 168L454 527H573Z" />
<glyph unicode="x" glyph-name="x" horiz-adv-x="391" d="M382 0H264L195 164L126 0H9L133 268L15 527H132L195 367L258 527H376L256 268L382 0Z" />
<glyph unicode="y" glyph-name="y" horiz-adv-x="382" d="M377 527L229 -67Q211 -140 164 -162T32 -185V-91Q60 -90 75 -88T105 -73T126 -36L135 1L4 527H121L191 168L260 527H377Z" />
<glyph unicode="z" glyph-name="z" horiz-adv-x="325" d="M299 0H26V80L180 433H38V527H299V448L145 95H299V0Z" />
<glyph unicode="{" glyph-name="braceleft" horiz-adv-x="335" d="M307 -74H246Q188 -74 152 -38Q114 -2 114 66V256Q114 279 101 294T68 309H29V403H68Q88 403 101 418T114 456V646Q114 714 152 750Q188 786 246 786H307V691H268Q247 691 234 677T220 639V459Q220
405 193 378Q177 362 156 356Q173 351 193 334Q220 307 220 253V73Q220 50 233 36T268 21H307V-74Z" />
<glyph unicode="|" glyph-name="bar" horiz-adv-x="330" d="M218 -74H112V786H218V-74Z" />
<glyph unicode="}" glyph-name="braceright" horiz-adv-x="335" d="M307 309H268Q248 309 235 294T221 256V66Q221 -3 184 -38Q148 -74 89 -74H29V21H68Q88 21 101 35T115 73V253Q115 307 142 334Q158 350 179 356Q152 364 142 378Q115 405 115 459V639Q115 662
102 676T68 691H29V786H89Q148 786 184 750Q221 715 221 646V456Q221 433 234 418T268 403H307V309Z" />
<glyph unicode="~" glyph-name="asciitilde" horiz-adv-x="457" d="M434 287Q368 221 308 221Q267 221 220 246Q182 266 154 266Q121 266 88 233L23 297Q89 363 149 363Q191 363 238 338Q276 318 303 318Q336 318 369 351L434 287Z" />
</font>
</defs>
</svg>
